<svg width="100" height="100" viewBox="0 0 100 100" fill="none" xmlns="http://www.w3.org/2000/svg">
<path d="M54.289 54.6363V45.3418H57.3314C58.1881 45.3418 58.8613 45.5687 59.3509 46.0225C59.8404 46.4676 60.0852 47.0741 60.0852 47.8421C60.0852 48.5578 59.8667 49.1381 59.4295 49.5832C59.0012 50.0196 58.4067 50.2683 57.6461 50.3294L61.331 54.6363H60.0328L56.3478 50.3163H55.2856V54.6363H54.289ZM55.2856 49.4H57.2133C58.4548 49.4 59.0755 48.8807 59.0755 47.8421C59.0755 46.7949 58.4548 46.2712 57.2133 46.2712H55.2856V49.4Z" fill="#1168F1"/>
<path d="M64.9922 54.7672C64.0305 54.7672 63.235 54.44 62.6055 53.7854C61.9848 53.1221 61.6744 52.3149 61.6744 51.3636C61.6744 50.4123 61.9848 49.6094 62.6055 48.9549C63.235 48.2916 64.0305 47.96 64.9922 47.96C65.9451 47.96 66.7057 48.2698 67.274 48.8894V48.0909H68.192V54.6363H67.274V53.8378C66.7057 54.4574 65.9451 54.7672 64.9922 54.7672ZM65.0315 53.9163C65.5386 53.9163 65.9845 53.8072 66.3691 53.5891C66.7538 53.3709 67.0554 53.0829 67.274 52.7251V50.0021C67.0554 49.6443 66.7538 49.3563 66.3691 49.1381C65.9845 48.92 65.5386 48.8109 65.0315 48.8109C64.3234 48.8109 63.742 49.0596 63.2874 49.5571C62.8416 50.0458 62.6186 50.648 62.6186 51.3636C62.6186 52.0792 62.8416 52.6858 63.2874 53.1832C63.742 53.672 64.3234 53.9163 65.0315 53.9163Z" fill="#1168F1"/>
<path d="M73.6463 54.7672C72.6934 54.7672 71.9328 54.4574 71.3645 53.8378V54.6363H70.4466V45.08H71.3645V48.8894C71.9328 48.2698 72.6934 47.96 73.6463 47.96C74.608 47.96 75.3992 48.2916 76.0199 48.9549C76.6494 49.6094 76.9641 50.4123 76.9641 51.3636C76.9641 52.3149 76.6494 53.1221 76.0199 53.7854C75.3992 54.44 74.608 54.7672 73.6463 54.7672ZM73.607 53.9163C74.3151 53.9163 74.8921 53.672 75.338 53.1832C75.7926 52.6858 76.0199 52.0792 76.0199 51.3636C76.0199 50.648 75.7926 50.0458 75.338 49.5571C74.8921 49.0596 74.3151 48.8109 73.607 48.8109C73.0999 48.8109 72.6541 48.92 72.2694 49.1381C71.8847 49.3563 71.5831 49.6443 71.3645 50.0021V52.7251C71.5831 53.0829 71.8847 53.3709 72.2694 53.5891C72.6541 53.8072 73.0999 53.9163 73.607 53.9163Z" fill="#1168F1"/>
<path d="M81.868 54.7672C80.9151 54.7672 80.1545 54.4574 79.5862 53.8378V54.6363H78.6682V45.08H79.5862V48.8894C80.1545 48.2698 80.9151 47.96 81.868 47.96C82.8297 47.96 83.6209 48.2916 84.2416 48.9549C84.871 49.6094 85.1858 50.4123 85.1858 51.3636C85.1858 52.3149 84.871 53.1221 84.2416 53.7854C83.6209 54.44 82.8297 54.7672 81.868 54.7672ZM81.8287 53.9163C82.5368 53.9163 83.1138 53.672 83.5597 53.1832C84.0143 52.6858 84.2416 52.0792 84.2416 51.3636C84.2416 50.648 84.0143 50.0458 83.5597 49.5571C83.1138 49.0596 82.5368 48.8109 81.8287 48.8109C81.3216 48.8109 80.8757 48.92 80.4911 49.1381C80.1064 49.3563 79.8048 49.6443 79.5862 50.0021V52.7251C79.8048 53.0829 80.1064 53.3709 80.4911 53.5891C80.8757 53.8072 81.3216 53.9163 81.8287 53.9163Z" fill="#1168F1"/>
<path d="M87.362 46.3891C87.1609 46.3891 86.9905 46.3236 86.8506 46.1927C86.7194 46.0531 86.6539 45.8872 86.6539 45.6952C86.6539 45.5032 86.7194 45.3418 86.8506 45.2109C86.9905 45.0712 87.1609 45.0014 87.362 45.0014C87.5544 45.0014 87.7161 45.0712 87.8472 45.2109C87.9784 45.3418 88.0439 45.5032 88.0439 45.6952C88.0439 45.8872 87.9784 46.0531 87.8472 46.1927C87.7161 46.3236 87.5544 46.3891 87.362 46.3891ZM86.8899 54.6363V48.0909H87.8079V54.6363H86.8899Z" fill="#1168F1"/>
<path d="M92.6755 54.7018C92.1335 54.7018 91.6789 54.5403 91.3117 54.2174C90.9532 53.8945 90.774 53.4276 90.774 52.8167V48.9549H89.1086V48.0909H90.774V46.2712H91.692V48.0909H93.7377V48.9549H91.692V52.7381C91.692 53.1309 91.7882 53.4189 91.9805 53.6021C92.1816 53.7854 92.4395 53.8771 92.7542 53.8771C93.1039 53.8771 93.4274 53.7941 93.7246 53.6283L94 54.4138C93.6328 54.6058 93.1913 54.7018 92.6755 54.7018Z" fill="#1168F1"/>
<path d="M23.4539 52.1316C23.9872 52.6815 24.6298 52.9564 25.3816 52.9564C26.1335 52.9564 26.7717 52.6815 27.2962 52.1316C27.8208 51.5818 28.0831 50.9273 28.0831 50.168C28.0831 49.4087 27.8208 48.7542 27.2962 48.2044C26.7717 47.6545 26.1335 47.3796 25.3816 47.3796C24.6298 47.3796 23.9872 47.6545 23.4539 48.2044C22.9294 48.7542 22.6671 49.4087 22.6671 50.168C22.6671 50.9273 22.9294 51.5818 23.4539 52.1316Z" fill="#1168F1"/>
<path fill-rule="evenodd" clip-rule="evenodd" d="M10.319 41C7.93369 41 6 42.9537 6 45.3636V54.6364C6 57.0463 7.93369 59 10.319 59H45.9509C48.3363 59 50.2699 57.0463 50.2699 54.6364V45.3636C50.2699 42.9537 48.3363 41 45.9509 41H10.319ZM11.1823 53.5716C12.1265 54.5055 13.263 54.9724 14.5919 54.9724C15.5448 54.9724 16.4059 54.7411 17.1753 54.2785C17.9446 53.816 18.5347 53.2007 18.9456 52.4327L17.1097 51.4378C16.5502 52.4502 15.7109 52.9564 14.5919 52.9564C13.84 52.9564 13.1974 52.6815 12.6642 52.1316C12.1396 51.5818 11.8773 50.9273 11.8773 50.168C11.8773 49.4087 12.1396 48.7542 12.6642 48.2044C13.1974 47.6545 13.84 47.3796 14.5919 47.3796C15.7109 47.3796 16.5502 47.8858 17.1097 48.8982L18.9456 47.9033C18.5347 47.1353 17.9446 46.52 17.1753 46.0575C16.4059 45.5949 15.5448 45.3636 14.5919 45.3636C13.263 45.3636 12.1265 45.8349 11.1823 46.7775C10.2469 47.7113 9.77914 48.8415 9.77914 50.168C9.77914 51.4945 10.2469 52.6291 11.1823 53.5716ZM25.3816 54.9724C26.7105 54.9724 27.8426 54.5011 28.7781 53.5585C29.7223 52.616 30.1944 51.4858 30.1944 50.168C30.1944 48.8502 29.7223 47.72 28.7781 46.7775C27.8426 45.8349 26.7105 45.3636 25.3816 45.3636C24.0528 45.3636 22.9163 45.8349 21.9721 46.7775C21.0366 47.7113 20.5689 48.8415 20.5689 50.168C20.5689 51.4945 21.0366 52.6291 21.9721 53.5716C22.9163 54.5055 24.0528 54.9724 25.3816 54.9724ZM34.647 45.5207H32.562V54.8153H34.647V45.5207ZM44.1601 54.8153H45.9566V45.5207H43.8585V51.2676L39.3342 45.5207H37.5377V54.8153H39.6227V49.0684L44.1601 54.8153Z" fill="#1168F1"/>
</svg>
